<!-- bg-intro-geo-diferente-clean-ajustado.svg -->
<svg xmlns="http://www.w3.org/2000/svg"
     xmlns:xlink="http://www.w3.org/1999/xlink"
     width="1271" height="1034"
     viewBox="0 0 1271 1034">
  <defs>
    <linearGradient id="c" x1="0%" x2="99.58%" y1="36.147%" y2="63.736%">
      <stop offset="0%" stop-color="#3B82F6"/>
      <stop offset="100%" stop-color="#2AB6D9"/>
    </linearGradient>

    <filter id="a" filterUnits="userSpaceOnUse" x="-500" y="-500" width="2600" height="2400">
      <feOffset dy="2" in="SourceAlpha" result="shadowOffsetOuter1"/>
      <feGaussianBlur in="shadowOffsetOuter1" result="shadowBlurOuter1" stdDeviation="38.5"/>
      <feColorMatrix in="shadowBlurOuter1"
        values="0 0 0 0 0
                0 0 0 0 0
                0 0 0 0 0
                0 0 0 0.0240111451 0"/>
    </filter>

    <path id="b" d="
      M 90 640
      L 245 795
      Q 280 830 330 830
      L 460 830
      Q 520 830 560 870
      L 690 1000
      Q 730 1040 790 1040
      L 1140 1040
      Q 1245 1040 1245 935
      Q 1245 885 1210 850
      L 1090 730
      Q 1065 705 1085 680
      Q 1105 655 1140 655
      Q 1195 655 1195 600
      Q 1195 570 1175 550
      L 995 370
      Q 950 325 885 325
      L 650 325
      Q 590 325 550 285
      L 500 235
      Q 455 190 390 190
      L 175 190
      Q 90 190 90 275
      Q 90 320 122 352
      L 170 400
      Q 215 445 190 495
      Q 170 535 120 535
      Q 65 535 65 585
      Q 65 620 90 640
      Z"/>
  </defs>

  <!-- Ajuste: desce (Y maior) e scale um pouco menor pra não cortar em cima -->
  <g fill="none" fill-rule="evenodd" transform="translate(90 60) scale(0.84)">
    <use fill="#000" filter="url(#a)" xlink:href="#b"/>
    <use fill="#0b1220" xlink:href="#b"/>
    <use fill="url(#c)" xlink:href="#b" transform="translate(60 -250)"/>
  </g>
</svg>